<mxfile host="app.diagrams.net" modified="2024-01-16T01:00:22.307Z" agent="Mozilla/5.0 (Windows NT 10.0; Win64; x64) AppleWebKit/537.36 (KHTML, like Gecko) Chrome/120.0.0.0 Safari/537.36" etag="f0L83vKR9aaEXc7URoRH" version="22.1.18" type="device">
  <diagram id="C5RBs43oDa-KdzZeNtuy" name="Page-1">
    <mxGraphModel dx="1434" dy="746" grid="1" gridSize="10" guides="1" tooltips="1" connect="1" arrows="1" fold="1" page="1" pageScale="1" pageWidth="827" pageHeight="1169" math="0" shadow="0">
      <root>
        <mxCell id="WIyWlLk6GJQsqaUBKTNV-0" />
        <mxCell id="WIyWlLk6GJQsqaUBKTNV-1" parent="WIyWlLk6GJQsqaUBKTNV-0" />
        <mxCell id="Sn4l5J6o_MFr1SAcCn65-19" style="edgeStyle=orthogonalEdgeStyle;rounded=0;orthogonalLoop=1;jettySize=auto;html=1;exitX=0;exitY=0.5;exitDx=0;exitDy=0;startArrow=classic;startFill=1;endArrow=none;endFill=0;" edge="1" parent="WIyWlLk6GJQsqaUBKTNV-1" source="Sn4l5J6o_MFr1SAcCn65-1">
          <mxGeometry relative="1" as="geometry">
            <mxPoint x="80" y="140" as="targetPoint" />
            <Array as="points">
              <mxPoint x="120" y="60" />
              <mxPoint x="120" y="140" />
            </Array>
          </mxGeometry>
        </mxCell>
        <mxCell id="Sn4l5J6o_MFr1SAcCn65-1" value="" style="shape=sumEllipse;perimeter=ellipsePerimeter;whiteSpace=wrap;html=1;backgroundOutline=1;" vertex="1" parent="WIyWlLk6GJQsqaUBKTNV-1">
          <mxGeometry x="200" y="40" width="40" height="40" as="geometry" />
        </mxCell>
        <mxCell id="Sn4l5J6o_MFr1SAcCn65-20" value="r(t)" style="edgeStyle=orthogonalEdgeStyle;rounded=0;orthogonalLoop=1;jettySize=auto;html=1;exitX=0;exitY=0.5;exitDx=0;exitDy=0;startArrow=classic;startFill=1;endArrow=none;endFill=0;" edge="1" parent="WIyWlLk6GJQsqaUBKTNV-1" source="Sn4l5J6o_MFr1SAcCn65-3">
          <mxGeometry x="1" y="20" relative="1" as="geometry">
            <mxPoint x="80" y="140" as="targetPoint" />
            <Array as="points">
              <mxPoint x="120" y="220" />
              <mxPoint x="120" y="140" />
            </Array>
            <mxPoint x="-20" y="-20" as="offset" />
          </mxGeometry>
        </mxCell>
        <mxCell id="Sn4l5J6o_MFr1SAcCn65-3" value="" style="shape=sumEllipse;perimeter=ellipsePerimeter;whiteSpace=wrap;html=1;backgroundOutline=1;" vertex="1" parent="WIyWlLk6GJQsqaUBKTNV-1">
          <mxGeometry x="200" y="200" width="40" height="40" as="geometry" />
        </mxCell>
        <mxCell id="Sn4l5J6o_MFr1SAcCn65-4" style="edgeStyle=orthogonalEdgeStyle;rounded=0;orthogonalLoop=1;jettySize=auto;html=1;exitX=0.5;exitY=0;exitDx=0;exitDy=0;entryX=0.5;entryY=1;entryDx=0;entryDy=0;" edge="1" parent="WIyWlLk6GJQsqaUBKTNV-1" source="Sn4l5J6o_MFr1SAcCn65-5" target="Sn4l5J6o_MFr1SAcCn65-1">
          <mxGeometry relative="1" as="geometry" />
        </mxCell>
        <mxCell id="Sn4l5J6o_MFr1SAcCn65-5" value="0°" style="rounded=0;whiteSpace=wrap;html=1;" vertex="1" parent="WIyWlLk6GJQsqaUBKTNV-1">
          <mxGeometry x="200" y="100" width="40" height="20" as="geometry" />
        </mxCell>
        <mxCell id="Sn4l5J6o_MFr1SAcCn65-6" style="edgeStyle=orthogonalEdgeStyle;rounded=0;orthogonalLoop=1;jettySize=auto;html=1;exitX=0.5;exitY=1;exitDx=0;exitDy=0;entryX=0.5;entryY=0;entryDx=0;entryDy=0;" edge="1" parent="WIyWlLk6GJQsqaUBKTNV-1" source="Sn4l5J6o_MFr1SAcCn65-7" target="Sn4l5J6o_MFr1SAcCn65-3">
          <mxGeometry relative="1" as="geometry" />
        </mxCell>
        <mxCell id="Sn4l5J6o_MFr1SAcCn65-7" value="90°" style="rounded=0;whiteSpace=wrap;html=1;" vertex="1" parent="WIyWlLk6GJQsqaUBKTNV-1">
          <mxGeometry x="200" y="160" width="40" height="20" as="geometry" />
        </mxCell>
        <mxCell id="Sn4l5J6o_MFr1SAcCn65-17" style="edgeStyle=orthogonalEdgeStyle;rounded=0;orthogonalLoop=1;jettySize=auto;html=1;exitX=0;exitY=0.5;exitDx=0;exitDy=0;exitPerimeter=0;entryX=0.5;entryY=1;entryDx=0;entryDy=0;" edge="1" parent="WIyWlLk6GJQsqaUBKTNV-1" source="Sn4l5J6o_MFr1SAcCn65-10" target="Sn4l5J6o_MFr1SAcCn65-5">
          <mxGeometry relative="1" as="geometry" />
        </mxCell>
        <mxCell id="Sn4l5J6o_MFr1SAcCn65-18" style="edgeStyle=orthogonalEdgeStyle;rounded=0;orthogonalLoop=1;jettySize=auto;html=1;exitX=0;exitY=0.5;exitDx=0;exitDy=0;exitPerimeter=0;entryX=0.5;entryY=0;entryDx=0;entryDy=0;" edge="1" parent="WIyWlLk6GJQsqaUBKTNV-1" source="Sn4l5J6o_MFr1SAcCn65-10" target="Sn4l5J6o_MFr1SAcCn65-7">
          <mxGeometry relative="1" as="geometry" />
        </mxCell>
        <mxCell id="Sn4l5J6o_MFr1SAcCn65-10" value="LO" style="pointerEvents=1;verticalLabelPosition=middle;shadow=0;dashed=0;align=left;html=1;verticalAlign=middle;shape=mxgraph.electrical.signal_sources.source;aspect=fixed;points=[[0.5,0,0],[1,0.5,0],[0.5,1,0],[0,0.5,0]];elSignalType=ac;labelPosition=right;" vertex="1" parent="WIyWlLk6GJQsqaUBKTNV-1">
          <mxGeometry x="280" y="120" width="40" height="40" as="geometry" />
        </mxCell>
        <mxCell id="Sn4l5J6o_MFr1SAcCn65-13" value="I(t)" style="edgeStyle=orthogonalEdgeStyle;rounded=0;orthogonalLoop=1;jettySize=auto;html=1;exitX=1;exitY=0.5;exitDx=0;exitDy=0;" edge="1" parent="WIyWlLk6GJQsqaUBKTNV-1" source="Sn4l5J6o_MFr1SAcCn65-1">
          <mxGeometry x="1" y="-10" relative="1" as="geometry">
            <mxPoint x="370" y="60" as="targetPoint" />
            <mxPoint x="9" y="-10" as="offset" />
          </mxGeometry>
        </mxCell>
        <mxCell id="Sn4l5J6o_MFr1SAcCn65-14" value="Q(t)" style="edgeStyle=orthogonalEdgeStyle;rounded=0;orthogonalLoop=1;jettySize=auto;html=1;exitX=1;exitY=0.5;exitDx=0;exitDy=0;" edge="1" parent="WIyWlLk6GJQsqaUBKTNV-1" source="Sn4l5J6o_MFr1SAcCn65-3">
          <mxGeometry x="1" y="-10" relative="1" as="geometry">
            <mxPoint x="370" y="220" as="targetPoint" />
            <mxPoint x="9" y="-10" as="offset" />
          </mxGeometry>
        </mxCell>
        <mxCell id="Sn4l5J6o_MFr1SAcCn65-15" value="cos(2πf&lt;sub&gt;c&lt;/sub&gt;t)" style="text;strokeColor=none;align=center;fillColor=none;html=1;verticalAlign=middle;whiteSpace=wrap;rounded=0;" vertex="1" parent="WIyWlLk6GJQsqaUBKTNV-1">
          <mxGeometry x="230" y="80" width="60" height="30" as="geometry" />
        </mxCell>
        <mxCell id="Sn4l5J6o_MFr1SAcCn65-16" value="sin(2πf&lt;sub&gt;c&lt;/sub&gt;t)" style="text;strokeColor=none;align=center;fillColor=none;html=1;verticalAlign=middle;whiteSpace=wrap;rounded=0;" vertex="1" parent="WIyWlLk6GJQsqaUBKTNV-1">
          <mxGeometry x="230" y="180" width="60" height="30" as="geometry" />
        </mxCell>
      </root>
    </mxGraphModel>
  </diagram>
</mxfile>
